<?xml version="1.0" encoding="UTF-8" standalone="no"?>
<svg xmlns="http://www.w3.org/2000/svg" xmlns:xlink="http://www.w3.org/1999/xlink"
     version="1.1"
     viewBox="0 0 63.5 13"
     style="fill: #e30d18">
    <title>BigClown</title>
    <g>
       <path d="M57 12V3.06h1.67V4.8a2.3 2.3 0 0 1 2.13-1.08 2.53 2.53 0 0 1 2.63 2.86l.06 5.52h-1.68l-.06-5.28a1.41 1.41 0 0 0-1.47-1.62 1.57 1.57 0 0 0-1.66 1.6l.06 5.2zM9.05 2.87l1.39.02-.03 4.72-.14 4.77-1.74-.06.18-4.77.34-4.68zM31.75 2.54l1.96-.05-.4 5.13.44 4.93-1.88-.09-.03-4.84-.09-5.08zM8.86.93a1.15 1.15 0 0 1 1.83-.71A1.09 1.09 0 0 1 9.75 2c-.43-.16-1-.47-.89-1M17.55 4c0-.32-.15-.88 0-.89.41-.31 1-.19 1.55-.22 0 2.42.68 4.81.38 7.38-.41 3.15-4.53 3.22-6.74 1.91l.79-1.32a3.23 3.23 0 0 0 3.86.23c.69-.46.49-1.45.6-2.17a3.22 3.22 0 0 1-3.8.91 3.72 3.72 0 0 1-1.95-4.6A3.26 3.26 0 0 1 14.82 3a2.4 2.4 0 0 1 2.72 1m-.21 4a2.18 2.18 0 0 0-1.15-3.48A2.23 2.23 0 0 0 13.7 6a2.16 2.16 0 0 0 1.7 2.62A2.4 2.4 0 0 0 17.33 8M30.15 4.29L29 5.31a3.41 3.41 0 0 0-2.67-1.18 3.37 3.37 0 0 0-2.47 1 3.33 3.33 0 0 0-1 2.47 3.34 3.34 0 0 0 3.43 3.4A3.38 3.38 0 0 0 29 9.81l1.18 1a5.07 5.07 0 0 1-3.88 1.77 5.19 5.19 0 0 1-3.68-1.42 4.81 4.81 0 0 1-1.5-3.6A4.8 4.8 0 0 1 22.61 4a5.14 5.14 0 0 1 3.68-1.44 5 5 0 0 1 3.86 1.74M34.67 9.07a3.54 3.54 0 0 1 1.12-2.65 4 4 0 0 1 5.46 0 3.54 3.54 0 0 1 1.12 2.65 3.54 3.54 0 0 1-1.12 2.65 4 4 0 0 1-5.46 0 3.54 3.54 0 0 1-1.12-2.65m5.41 1.58a2.16 2.16 0 0 0 .63-1.58 2.1 2.1 0 0 0-.63-1.56 2.22 2.22 0 0 0-3.12 0 2.15 2.15 0 0 0-.62 1.56 2.2 2.2 0 0 0 .66 1.57 2.25 2.25 0 0 0 3.12 0M45.63 12l-3.09-7.91 1.55-.5 2.16 6.09 1.87-6.05 1.35-.34 2.51 6.25 1.97-6.59 1.65-.19-2.93 9.45-1.32-.22-2.52-6.1-1.93 6.33-1.27-.22zM0 12.35V2.63h3.53a2.76 2.76 0 0 1 1.93.71 2.24 2.24 0 0 1 .8 1.77A2 2 0 0 1 5 7.06a2.3 2.3 0 0 1 2 2.42 2.73 2.73 0 0 1-.85 2.06 2.91 2.91 0 0 1-2.15.81zm1.75-5.8h1.54a1.18 1.18 0 0 0 1.26-1.2 1.16 1.16 0 0 0-1.24-1.14H1.75zm0 4.22h2A1.39 1.39 0 1 0 3.7 8H1.75z"/>
    </g>
</svg>
